<svg xmlns="http://www.w3.org/2000/svg" viewBox="0 0 69 71"><path d="M61.79 48.69a3.811 3.811 0 00-3.114-.843L35.482 51.89l-6.587-6.605a1.163 1.163 0 00-.827-.344H0v2.345h9.356v16.418H0v2.345h15.203a1.17 1.17 0 001.17-1.173v-1.172h3.232l12.503 6.269a3.807 3.807 0 003.635-.116l25.514-14.925a3.845 3.845 0 001.896-3.31 3.833 3.833 0 00-1.363-2.933zM14.034 63.705h-2.34V47.287h2.34v16.418zm46.044-10.798L34.566 67.83c-.433.254-.96.271-1.41.045l-12.75-6.392a1.163 1.163 0 00-.525-.125h-3.508V47.287h11.21l9.215 9.24a2.143 2.143 0 01-1.512 3.66 2.152 2.152 0 01-1.512-.628l-6.049-6.065-1.654 1.658 6.05 6.065a4.44 4.44 0 003.165 1.315c2.468 0 4.477-2.015 4.477-4.49a4.467 4.467 0 00-1.311-3.174l-.947-.95 21.57-3.761a1.486 1.486 0 011.003 2.75zM17.543.38C8.514.38 1.17 7.746 1.17 16.799c0 9.053 7.344 16.417 16.373 16.417 9.028 0 16.373-7.364 16.373-16.417S26.57.381 17.543.381zm0 30.49c-7.739 0-14.034-6.313-14.034-14.072 0-7.76 6.295-14.072 14.034-14.072 7.738 0 14.034 6.312 14.034 14.072 0 7.76-6.296 14.072-14.034 14.072zM52.627 7.417c-9.028 0-16.373 7.364-16.373 16.417S43.6 40.25 52.627 40.25C61.656 40.251 69 32.887 69 23.834S61.656 7.416 52.627 7.416zm0 30.489c-7.739 0-14.034-6.313-14.034-14.072 0-7.76 6.295-14.072 14.034-14.072 7.739 0 14.034 6.312 14.034 14.072 0 7.76-6.295 14.072-14.034 14.072z"/><path d="M11.695 10.935a3.518 3.518 0 00-3.508 3.518 3.518 3.518 0 003.508 3.518 3.517 3.517 0 003.509-3.518 3.517 3.517 0 00-3.509-3.518zm0 4.69a1.171 1.171 0 010-2.345c.646 0 1.17.526 1.17 1.173s-.524 1.173-1.17 1.173zM23.39 10.935a3.518 3.518 0 00-3.508 3.518 3.518 3.518 0 003.508 3.518 3.518 3.518 0 003.509-3.518 3.518 3.518 0 00-3.509-3.518zm0 4.69a1.171 1.171 0 010-2.345c.646 0 1.17.526 1.17 1.173s-.524 1.173-1.17 1.173zM46.78 17.97a3.518 3.518 0 00-3.509 3.519 3.518 3.518 0 003.509 3.518 3.518 3.518 0 003.508-3.518 3.518 3.518 0 00-3.508-3.518zm0 4.691a1.172 1.172 0 010-2.345c.645 0 1.17.525 1.17 1.173 0 .647-.525 1.172-1.17 1.172zM17.542 20.316c-3.224 0-5.847 2.63-5.847 5.864h2.339a3.518 3.518 0 013.508-3.518 3.518 3.518 0 013.509 3.518h2.339c0-3.233-2.623-5.864-5.848-5.864zM56.136 28.525a3.518 3.518 0 01-3.509 3.518 3.518 3.518 0 01-3.508-3.518H46.78c0 3.233 2.623 5.863 5.847 5.863 3.225 0 5.848-2.63 5.848-5.863h-2.339zM49.119.38H46.78v2.346h2.339V.38z"/></svg>