<svg xmlns="http://www.w3.org/2000/svg" viewBox="0 0 90 78"><path d="M88.067.38H21.511c-1.068 0-1.934.768-1.934 1.716v34.098H1.933C.865 36.194 0 36.96 0 37.909V66.98c0 5.735 5.258 10.4 11.722 10.4h66.555C84.741 77.38 90 72.716 90 66.98V2.096C90 1.148 89.134.38 88.067.38zm-84.2 66.6V39.624h15.711V66.98c0 3.843-3.524 6.97-7.856 6.97-4.331 0-7.856-3.127-7.856-6.97zm82.266 0c0 3.843-3.524 6.97-7.856 6.97H20.416c1.88-1.845 3.029-4.291 3.029-6.97V3.81h62.688v63.17z"/><path d="M52.074 20.192h24.778c1.068 0 1.933-.768 1.933-1.716 0-.947-.865-1.715-1.933-1.715H52.074c-1.068 0-1.933.768-1.933 1.715 0 .948.865 1.716 1.933 1.716zM52.074 39.035h24.778c1.068 0 1.933-.768 1.933-1.716s-.865-1.716-1.933-1.716H52.074c-1.068 0-1.933.768-1.933 1.716s.865 1.716 1.933 1.716zM52.074 57.877h24.778c1.068 0 1.933-.768 1.933-1.716 0-.947-.865-1.715-1.933-1.715H52.074c-1.068 0-1.933.768-1.933 1.715 0 .948.865 1.716 1.933 1.716zM34.234 22.122c.366.343.874.537 1.406.537h.016a2.052 2.052 0 001.412-.558l10.619-10.32c.72-.699.664-1.784-.124-2.423-.789-.638-2.012-.589-2.732.11l-9.215 8.955-2.869-2.695c-.733-.689-1.957-.72-2.733-.07-.776.651-.81 1.737-.078 2.426l4.298 4.038zM44.831 29.13l-9.215 8.954-2.87-2.695c-.732-.69-1.956-.72-2.732-.07-.776.651-.81 1.736-.078 2.425l4.298 4.038c.366.343.874.538 1.406.538h.016a2.051 2.051 0 001.412-.56l10.619-10.317c.72-.7.664-1.785-.124-2.424-.789-.638-2.012-.59-2.732.11zM44.831 48.79l-9.215 8.955-2.87-2.695c-.732-.689-1.956-.72-2.732-.069-.776.65-.81 1.736-.078 2.425l4.298 4.037c.366.343.874.538 1.406.538h.016a2.051 2.051 0 001.412-.56l10.619-10.317c.72-.7.664-1.785-.124-2.423-.789-.639-2.012-.59-2.732.11z"/></svg>
