<svg xmlns="http://www.w3.org/2000/svg" viewBox="0 0 23 15"><path fill-rule="evenodd" clip-rule="evenodd" d="M14.229 6.487h-6.91v2.498h4.15c-.167 1.071-1.255 3.142-4.15 3.142-2.5 0-4.538-2.06-4.538-4.6 0-2.538 2.039-4.598 4.537-4.598 1.422 0 2.374.603 2.917 1.124l1.987-1.905C10.946.962 9.294.244 7.318.244 3.272.244 0 3.501 0 7.528c0 4.027 3.272 7.283 7.318 7.283 4.224 0 7.026-2.955 7.026-7.117 0-.478-.052-.842-.115-1.207zM23 8.568v-2.08h-2.09V4.405h-2.092v2.081h-2.09v2.081h2.09v2.082h2.091V8.567H23z"/></svg>
