<svg fill="none" xmlns="http://www.w3.org/2000/svg" viewBox="0 0 90 79"><path d="M10.5 44.58h6v9.101c0 .718.672 1.3 1.5 1.3.398 0 .78-.138 1.06-.381l11.561-10.02H33v-2.6h-3c-.398 0-.78.138-1.06.381l-9.44 8.181v-7.261c0-.718-.671-1.3-1.5-1.3h-7.5c-4.14-.005-7.495-2.912-7.5-6.5v-26c.005-3.589 3.36-6.496 7.5-6.5h48c4.14.004 7.495 2.911 7.5 6.5v19.5h3V9.48C68.993 4.457 64.296.386 58.5.38h-48C4.704.386.007 4.457 0 9.48v26c.007 5.023 4.704 9.094 10.5 9.1z" fill="#004460"/><path d="M79.5 31.58h-33c-5.796.006-10.493 4.077-10.5 9.1v18.2c.007 5.024 4.704 9.095 10.5 9.101h15.88L73.94 78c.586.507 1.535.507 2.121 0 .281-.244.439-.575.439-.919v-9.1h3c5.796-.006 10.493-4.077 10.5-9.1v-18.2c-.007-5.024-4.704-9.095-10.5-9.1zm7.5 27.3c-.005 3.589-3.36 6.496-7.5 6.5H75c-.828 0-1.5.583-1.5 1.3v7.262l-9.44-8.18A1.624 1.624 0 0063 65.38H46.5c-4.14-.005-7.495-2.912-7.5-6.5v-18.2c.005-3.588 3.36-6.496 7.5-6.5h33c4.14.004 7.495 2.912 7.5 6.5v18.2zM12 10.78h30v2.6H12v-2.6zM48 10.78h9v2.6h-9v-2.6zM12 18.58h45v2.601H12v-2.6zM33 26.38h24v2.601H33v-2.6zM12 26.38h15v2.601H12v-2.6zM12 34.18h21v2.6H12v-2.6z" fill="#004460"/><path d="M45 40.68h21v2.6H45v-2.6zM72 40.68h9v2.6h-9v-2.6zM45 48.48h35.999v2.6h-36v-2.6zM45 56.28h35.999v2.601h-36v-2.6z" fill="#004460"/></svg>