<svg xmlns="http://www.w3.org/2000/svg" viewBox="0 0 70 61"><path d="M.006 30.389a3.378 3.378 0 002.427 3.054l25.643 7.715.942 17.589a1.745 1.745 0 001.185 1.534c.186.071.386.1.571.1.5 0 .971-.2 1.314-.583l9.066-9.988 12.85 8.851c.57.398 1.242.611 1.941.611a3.443 3.443 0 003.356-2.727L69.966 2.457a1.737 1.737 0 00-.6-1.677 1.741 1.741 0 00-1.77-.27L2.062 27.05C.734 27.646-.08 28.954.006 30.389zm32.267 23.996l-.585-11.096 6.568 4.518-5.983 6.578zm23.615 1.35L32.502 39.624l32.795-31.57-9.409 47.68zM61.7 6.662L29.275 37.876l-25.614-7.7L61.7 6.662z"/></svg>
