<svg xmlns="http://www.w3.org/2000/svg" viewBox="0 0 61 91"><path d="M60.558 22.68L42.667.92C42.383.574 41.999.38 41.599.38H7.339C3.292.38 0 4.385 0 9.307v72.147c0 4.922 3.292 8.927 7.339 8.927H53.66c4.047 0 7.339-4.005 7.339-8.927V23.98c0-.487-.16-.955-.442-1.3zM43.109 6.653l12.736 15.491h-8.417c-1.154 0-2.238-.546-3.054-1.538-.816-.992-1.265-2.312-1.265-3.715V6.652zm14.87 74.802c0 2.897-1.937 5.253-4.318 5.253H7.34c-2.382 0-4.32-2.356-4.32-5.253V9.307c.001-2.896 1.938-5.253 4.32-5.253h32.75V16.89c0 2.384.763 4.626 2.15 6.312 1.385 1.686 3.228 2.614 5.189 2.614H57.98v55.638z"/><path d="M14.862 53.773h-.676c-.833 0-1.51.822-1.51 1.837 0 1.015.677 1.837 1.51 1.837h.676c.834 0 1.51-.822 1.51-1.837 0-1.014-.676-1.837-1.51-1.837zM46.814 53.773H19.747c-.834 0-1.51.822-1.51 1.837 0 1.015.677 1.837 1.51 1.837h27.067c.834 0 1.51-.822 1.51-1.837 0-1.014-.676-1.837-1.51-1.837zM14.862 45.38h-.676c-.833 0-1.51.823-1.51 1.837 0 1.015.677 1.837 1.51 1.837h.676c.834 0 1.51-.822 1.51-1.837 0-1.014-.676-1.837-1.51-1.837zM46.814 45.38H19.747c-.834 0-1.51.823-1.51 1.837 0 1.015.677 1.837 1.51 1.837h27.067c.834 0 1.51-.822 1.51-1.837 0-1.014-.676-1.837-1.51-1.837zM14.862 36.988h-.676c-.833 0-1.51.822-1.51 1.837 0 1.014.677 1.836 1.51 1.836h.676c.834 0 1.51-.822 1.51-1.836 0-1.015-.676-1.837-1.51-1.837zM46.814 36.988H19.747c-.834 0-1.51.822-1.51 1.837 0 1.014.677 1.836 1.51 1.836h27.067c.834 0 1.51-.822 1.51-1.836 0-1.015-.676-1.837-1.51-1.837z"/></svg>
