<svg xmlns="http://www.w3.org/2000/svg" viewBox="0 0 21 13"><path d="M11.53 11.955s.379-.041.573-.246c.178-.187.171-.541.171-.541s-.023-1.653.759-1.897c.77-.24 1.759 1.598 2.809 2.305.793.534 1.394.417 1.394.417l2.805-.038s1.467-.088.772-1.22c-.058-.093-.406-.839-2.085-2.369-1.76-1.602-1.523-1.343.595-4.114 1.29-1.688 1.805-2.719 1.644-3.16-.153-.42-1.102-.309-1.102-.309l-3.157.02s-.235-.032-.408.07c-.17.1-.28.333-.28.333s-.499 1.305-1.165 2.416c-1.407 2.343-1.968 2.467-2.198 2.322-.536-.34-.402-1.363-.402-2.09 0-2.271.351-3.218-.683-3.463-.343-.082-.596-.135-1.474-.144C8.971.236 8.018.25 7.478.51c-.36.172-.637.558-.467.58.208.027.68.125.931.46.324.432.312 1.402.312 1.402s.186 2.674-.434 3.005c-.425.228-1.009-.237-2.263-2.363C4.915 2.505 4.43 1.301 4.43 1.301s-.093-.224-.26-.345C3.967.809 3.685.764 3.685.764l-3 .02S.234.794.068.987c-.147.17-.011.524-.011.524s2.349 5.395 5.01 8.114c2.439 2.493 5.208 2.33 5.208 2.33h1.255z"/></svg>
