<svg xmlns="http://www.w3.org/2000/svg" viewBox="0 0 19 20"><path fill-rule="evenodd" clip-rule="evenodd" d="M9.501.411c-2.535 0-2.853.011-3.848.057C4.659.513 3.98.67 3.387.9a4.57 4.57 0 00-1.653 1.077A4.582 4.582 0 00.657 3.63c-.232.593-.39 1.272-.434 2.265C.18 6.892.167 7.21.167 9.745s.011 2.852.056 3.847c.046.994.203 1.672.434 2.266a4.573 4.573 0 001.076 1.653 4.57 4.57 0 001.653 1.077c.594.231 1.272.388 2.266.434.995.045 1.313.056 3.848.056s2.852-.01 3.848-.056c.993-.046 1.672-.203 2.266-.434a4.566 4.566 0 001.652-1.077 4.58 4.58 0 001.078-1.653c.229-.594.386-1.272.433-2.266.045-.995.056-1.312.056-3.847s-.011-2.853-.056-3.849c-.047-.993-.204-1.672-.434-2.265a4.58 4.58 0 00-1.077-1.653A4.561 4.561 0 0015.614.9c-.596-.23-1.274-.388-2.268-.433C12.351.422 12.034.41 9.498.41h.003zm-.31 1.682h.31c2.492 0 2.788.01 3.772.054.91.042 1.404.194 1.733.321.435.17.746.372 1.072.699.327.326.53.637.699 1.073.127.329.28.822.321 1.732.045.984.055 1.28.055 3.77 0 2.492-.01 2.787-.055 3.771-.041.91-.194 1.404-.321 1.733-.17.435-.372.745-.699 1.072a2.886 2.886 0 01-1.072.698c-.329.128-.823.28-1.733.321-.984.045-1.28.055-3.772.055s-2.787-.01-3.771-.055c-.91-.042-1.404-.194-1.733-.321a2.891 2.891 0 01-1.074-.698 2.893 2.893 0 01-.698-1.073c-.128-.329-.28-.823-.321-1.733-.045-.984-.054-1.28-.054-3.772s.009-2.786.054-3.77c.041-.91.193-1.404.32-1.733.17-.435.373-.747.7-1.073a2.897 2.897 0 011.073-.699c.329-.128.823-.28 1.733-.321.86-.04 1.195-.051 2.934-.053v.002h.526zm4.172 2.67a1.12 1.12 0 112.24 0 1.12 1.12 0 01-2.24 0zM9.5 4.95a4.793 4.793 0 10.001 9.587 4.793 4.793 0 000-9.587zm3.112 4.794a3.111 3.111 0 10-6.222 0 3.111 3.111 0 006.222 0z"/></svg>
