<svg xmlns="http://www.w3.org/2000/svg" viewBox="0 0 18 18"><path fill-rule="evenodd" clip-rule="evenodd" d="M4.34 2.247c0 1.113-.838 2.003-2.183 2.003h-.024C.837 4.25 0 3.36 0 2.247 0 1.11.863.244 2.183.244c1.32 0 2.132.866 2.157 2.003zm-.254 3.585v11.592H.228V5.832h3.858zM18 17.424v-6.647c0-3.56-1.904-5.217-4.442-5.217-2.049 0-2.966 1.125-3.478 1.914V5.832H6.222c.05 1.088 0 11.592 0 11.592h3.858V10.95c0-.346.025-.692.127-.94.28-.692.914-1.408 1.98-1.408 1.396 0 1.955 1.062 1.955 2.62v6.202H18z"/></svg>
