<svg xmlns="http://www.w3.org/2000/svg" viewBox="0 0 18 16"><path d="M.272 7.179c1.841-1.015 3.897-1.861 5.817-2.712 3.305-1.394 6.622-2.763 9.973-4.038.652-.218 1.823-.43 1.938.536-.063 1.368-.322 2.727-.5 4.087-.45 2.99-.97 5.97-1.478 8.95-.175.992-1.418 1.506-2.214.87-1.912-1.291-3.839-2.57-5.726-3.892-.619-.628-.045-1.53.507-1.979 1.575-1.552 3.245-2.87 4.737-4.503.403-.972-.787-.153-1.179.098-2.156 1.486-4.26 3.063-6.532 4.368-1.161.64-2.515.093-3.675-.263C.9 8.27-.625 7.836.272 7.179z"/></svg>
